Coordinates
version=1
nRows=22
nColumns=33
inDegrees=yes

Units are S.I. units (second, meters, Newtons, ...)
Angles are in degrees.

endheader
time	ground_thorax_rot_x	ground_thorax_rot_y	ground_thorax_rot_z	ground_thorax_tx	ground_thorax_ty	ground_thorax_tz	clav_prot_r	clav_elev_r	scapula_abduction_r	scapula_elevation_r	scapula_upward_rot_r	scapula_winging_r	shoulder_elv_r	plane_of_elev_r	axial_rot_r	elbow_flexion_r	pro_sup_r	wrist_flex_r	wrist_dev_r	clav_prot_l	clav_elev_l	scapula_abduction_l	scapula_elevation_l	scapula_upward_rot_l	scapula_winging_l	shoulder_elv_l	plane_of_elev_l	axial_rot_l	elbow_flexion_l	pro_sup_l	wrist_flex_l	wrist_dev_l	
3.3600	-32.048160	-27.445201	34.657488	-50.572434	778.487434	13.466769	9.402673	-45.000000	39.877700	-45.000000	-44.956145	-2253.615471	-2092.232792	31.259719	50.782087	1449.895903	28.552586	17.530082	12.852205	15.760005	38.196652	-35.584803	-45.000000	-45.000000	74.194125	-4235.398948	17.758657	-180.000000	-2.941905	-178.361054	6.107574	-15.486061	
3.3700	-32.394408	-27.237972	34.156475	-52.166000	779.800269	13.720343	9.445620	-45.000000	39.943693	-45.000000	-44.921624	-2253.709956	-2091.894222	31.496493	50.173586	1450.106975	28.412297	17.610009	12.559781	15.836222	38.241231	-35.845712	-45.000000	-45.000000	74.453931	-4235.041600	17.890092	-180.000000	-3.240026	-179.184586	6.059281	-15.550937	
3.3800	-32.751977	-27.015375	33.640426	-53.841516	781.146585	13.958931	9.494810	-45.000000	40.007578	-45.000000	-44.859100	-2253.806652	-2091.557725	31.716184	49.558806	1450.319498	28.287921	17.687866	12.247193	15.916076	38.282576	-36.125356	-45.000000	-45.000000	74.721625	-4234.683462	18.015340	-180.000000	-3.526636	-180.126444	6.021614	-15.599064	
3.3900	-33.094427	-26.773927	33.100135	-55.691366	782.560840	14.163768	9.517412	-45.000000	40.118242	-45.000000	-44.749018	-2253.926518	-2091.185346	31.931496	48.928750	1450.548040	28.206309	17.818693	11.984501	15.988268	38.341651	-36.393332	-45.000000	-45.000000	74.981284	-4234.336323	18.115103	-180.000000	-3.813092	-181.347210	5.995864	-15.652721	
3.4000	-33.443798	-26.492111	32.509148	-57.730598	784.052868	14.334349	9.525575	-45.000000	40.265134	-45.000000	-44.546482	-2254.067836	-2090.799617	32.130244	48.303381	1450.781650	28.162403	17.982683	11.741342	16.056928	38.405329	-36.671180	-45.000000	-45.000000	75.243337	-4233.990823	18.202540	-180.000000	-4.098108	-182.835466	5.984101	-15.701098	
3.4100	-33.807455	-26.152591	31.844327	-59.986496	785.636609	14.467758	9.518818	-45.000000	40.453334	-45.000000	-44.198608	-2254.234925	-2090.409554	32.302308	47.709063	1451.016362	28.153753	18.176784	11.513072	16.123966	38.472945	-36.964309	-45.000000	-45.000000	75.508021	-4233.642866	18.281569	-180.000000	-4.384102	-184.597947	5.984527	-15.744326	
3.4200	-34.197298	-25.741231	31.089898	-62.465355	787.318185	14.565834	9.498690	-45.000000	40.670482	-45.000000	-43.665022	-2254.428240	-2090.035727	32.442551	47.176311	1451.235030	28.166385	18.387774	11.284107	16.188182	38.537085	-37.282785	-45.000000	-45.000000	75.783983	-4233.288130	18.364305	-180.000000	-4.672584	-186.578180	5.994531	-15.784113	
3.4300	-34.613341	-25.255062	30.245794	-65.163794	789.098599	14.632121	9.467255	-45.000000	40.905673	-45.000000	-42.937777	-2254.644771	-2089.685164	32.549021	46.732602	1451.429592	28.182369	18.601737	11.042346	16.251490	38.598753	-37.626417	-45.000000	-45.000000	76.073322	-4232.926013	18.454335	-180.000000	-4.964420	-188.707779	6.009187	-15.823216	
3.4400	-35.045081	-24.707652	29.336099	-68.078263	790.976331	14.669375	9.423262	-45.000000	41.151648	-45.000000	-42.051395	-2254.885442	-2089.356155	32.626479	46.395889	1451.601043	28.184685	18.814430	10.790382	16.312214	38.655862	-37.982876	-45.000000	-45.000000	76.376117	-4232.559101	18.550451	-180.000000	-5.261245	-190.928718	6.024356	-15.869004	
3.4500	-35.476659	-24.119064	28.392826	-71.204655	792.947177	14.679503	9.369220	-45.000000	41.399504	-45.000000	-41.069433	-2255.145038	-2089.035508	32.681627	46.161328	1451.756198	28.160430	19.019548	10.528735	16.371116	38.713374	-38.336912	-45.000000	-45.000000	76.690575	-4232.191610	18.644183	-180.000000	-5.561317	-193.202437	6.039691	-15.923611	
3.4600	-35.892754	-23.521478	27.462959	-74.537952	795.004613	14.663718	9.313671	-45.000000	41.639822	-45.000000	-40.090867	-2255.419847	-2088.713927	32.725960	46.018443	1451.907139	28.102846	19.213189	10.262717	16.430660	38.758304	-38.667639	-45.000000	-45.000000	77.012007	-4231.825925	18.722322	-180.000000	-5.861055	-195.523962	6.053669	-15.987194	
3.4700	-36.285955	-22.921591	26.562817	-78.071479	797.140020	14.622811	9.258675	-45.000000	41.865450	-45.000000	-39.163239	-2255.704048	-2088.381463	32.767543	45.940230	1452.051028	28.013416	19.388924	9.993329	16.486882	38.793500	-38.969661	-45.000000	-45.000000	77.341740	-4231.466360	18.785728	-180.000000	-6.160335	-197.881512	6.071910	-16.058549	
3.4800	-36.646056	-22.344919	25.727335	-81.796946	799.343256	14.557488	9.218449	-45.000000	42.072122	-45.000000	-38.352443	-2256.000371	-2088.038782	32.817024	45.923236	1452.193520	27.901873	19.543873	9.729532	16.543861	38.789590	-39.227259	-45.000000	-45.000000	77.674039	-4231.118004	18.826431	-180.000000	-6.455165	-200.307068	6.092101	-16.134736	
3.4900	-36.978746	-21.774407	24.938121	-85.704061	801.602845	14.468650	9.187183	-45.000000	42.255402	-45.000000	-37.633888	-2256.305281	-2087.688073	32.874163	45.945772	1452.321994	27.782290	19.672450	9.468133	16.593654	38.755798	-39.452393	-45.000000	-45.000000	78.015935	-4230.785513	18.858332	-180.000000	-6.747092	-202.780665	6.122960	-16.214328	
3.5000	-37.283200	-21.219111	24.205437	-89.780866	803.906246	14.357571	9.171690	-45.000000	42.408832	-45.000000	-37.024166	-2256.618372	-2087.339164	32.942815	46.012898	1452.434121	27.674716	19.770535	9.209245	16.633850	38.683319	-39.642853	-45.000000	-45.000000	78.365502	-4230.473459	18.878875	-180.000000	-7.031819	-205.313812	6.165808	-16.292907	
3.5100	-37.570829	-20.644559	23.487077	-94.013703	806.239847	14.225921	9.151337	-45.000000	42.535454	-45.000000	-36.449815	-2256.932732	-2086.994955	33.010968	46.107950	1452.518273	27.601663	19.835128	8.946289	16.655214	38.606089	-39.819359	-45.000000	-45.000000	78.728389	-4230.181272	18.907239	-180.000000	-7.312592	-207.841819	6.227617	-16.373653	
3.5200	-37.838397	-20.063198	22.792164	-98.387498	808.588969	14.075670	9.130529	-45.000000	42.638480	-45.000000	-35.928508	-2257.249108	-2086.659557	33.079781	46.245558	1452.588229	27.589855	19.866826	8.681518	16.660928	38.518342	-39.975290	-45.000000	-45.000000	79.098833	-4229.908665	18.935658	-180.000000	-7.585846	-210.356631	6.304459	-16.454297	
3.5300	-38.091386	-19.455614	22.093586	-102.886054	810.938054	13.908864	9.093902	-45.000000	42.724983	-45.000000	-35.420830	-2257.561191	-2086.328855	33.138560	46.411857	1452.650525	27.664067	19.868350	8.412553	16.647782	38.449945	-40.119479	-45.000000	-45.000000	79.475684	-4229.650284	18.971993	-180.000000	-7.855844	-212.804169	6.399268	-16.537100	
3.5400	-38.322779	-18.847353	21.419080	-107.492196	813.270836	13.727466	9.053948	-45.000000	42.789563	-45.000000	-34.969249	-2257.868070	-2086.007865	33.190938	46.616517	1452.712257	27.848905	19.839994	8.138842	16.615777	38.392335	-40.240108	-45.000000	-45.000000	79.852344	-4229.406772	19.003023	-180.000000	-8.118020	-215.202171	6.510901	-16.613362	
3.5500	-38.534977	-18.222775	20.750083	-112.188236	815.570945	13.533159	8.999910	-45.000000	42.840020	-45.000000	-34.544026	-2258.166384	-2085.693671	33.228422	46.848764	1452.775685	28.161854	19.787973	7.866154	16.567162	38.358874	-40.340248	-45.000000	-45.000000	80.224490	-4229.172378	19.037009	-180.000000	-8.376781	-217.527856	6.637353	-16.683437	
3.5600	-38.719388	-17.614506	20.123944	-116.956335	817.822542	13.327412	8.952077	-45.000000	42.865736	-45.000000	-34.207643	-2258.458219	-2085.391808	33.262988	47.119342	1452.840107	28.617348	19.714092	7.598325	16.507906	38.323458	-40.405804	-45.000000	-45.000000	80.585590	-4228.950106	19.060776	-180.000000	-8.623823	-219.821470	6.772002	-16.738754	
3.5700	-38.874529	-17.022410	19.540556	-121.778976	820.010952	13.111271	8.912616	-45.000000	42.868835	-45.000000	-33.962652	-2258.742342	-2085.099492	33.292585	47.424138	1452.905403	29.225116	19.624004	7.340915	16.440854	38.291106	-40.436902	-45.000000	-45.000000	80.926282	-4228.739683	19.070194	-180.000000	-8.860445	-222.100244	6.909122	-16.776907	
